<?xml version="1.0" encoding="utf-8"?>
<!-- Generator: Adobe Illustrator 21.0.0, SVG Export Plug-In . SVG Version: 6.00 Build 0)  -->
<svg version="1.1" id="Layer_1" xmlns="http://www.w3.org/2000/svg" xmlns:xlink="http://www.w3.org/1999/xlink" x="0px" y="0px"
	 viewBox="0 0 512 512" style="enable-background:new 0 0 512 512;" xml:space="preserve">
<style type="text/css">
	.st0{fill:#F99C1C;}
</style>
<g>
	<path class="st0" d="M127.5,349.9c1.6-4,3.4-7.7,4.5-11.6c4.3-14.5,2.4-28.3-5.1-41.4c-0.9-1.5-1.4-3.5-1.5-5.3
		c-0.1-21.6,0-43.3-0.1-64.9c0-1.2-0.5-3.4-1-3.4c-2.1-0.3-4.3-0.1-6.4,0.2c-0.3,0-0.5,1.8-0.5,2.7c0,18.4,0,36.8,0,55.2
		c0,1,0,2,0,3.5c-1-0.5-1.6-0.7-2.1-1.1c-9.5-7.6-20.2-11.7-32.4-11.5c-2.8,0-2.4-1.7-2.4-3.4c0-29.9,0-59.9,0-89.8
		c0-21.6,0-43.1,0-64.7c0-4-0.9-5.6-3.2-5.5c-2.1,0.1-3,1.6-3,5.5c-0.2,36.4-0.3,72.9-0.5,109.3c0,7.6-3.9,13.4-10.2,15.7
		c-9.9,3.6-20.4-3.6-20.7-14.1c-0.1-5.4,0-10.8,0-16.2c0.2-32,0.4-64,0.6-96.1c0.1-15.7,7.2-27,21.1-34.1c4.7-2.4,9.9-3.4,15.2-3.5
		c4.3,0,8.7,0.1,13-0.1c2.1-0.1,3,0.8,3.7,2.6c4.8,12.6,9.7,25.2,14.5,37.9c0.7,1.7,1.4,3.4,2.7,4.9c-0.8-4-1.5-8.1-2.5-12.1
		c-0.9-3.9-1.1-7.6,1.5-10.8c4.8-5.8,4.7-11.3,0.1-17.3c-2.4-3.1-1.1-4.8,2.9-4.9c4.1,0,8.1,0,12.2,0c3.1,0,4.1,1.6,2.6,4.4
		c-1.3,2.5-2.8,4.8-4,7.4c-0.4,1-0.5,2.4,0,3.4c1.4,2.9,3,5.8,4.6,8.6c1.3,2.2,1.7,4.4,1,7c-1,3.3-1.6,6.7-2.4,10
		c-0.3,1.2-0.5,2.5-0.2,3.9c1-2.3,2-4.5,2.9-6.8c4.8-12,9.5-23.9,14.4-35.9c0.4-0.9,1.6-2,2.4-2c6.9,0.1,14-0.3,20.8,0.8
		c15.6,2.5,28.1,16.6,29,32.4c0.5,9.5,0.3,19.1,0.5,28.7c0,0.7,0.1,1.4,0.2,2.6c1.1-0.5,1.9-0.9,2.7-1.4
		c9.4-5.8,18.8-11.8,28.3-17.5c8.7-5.2,19.2-1.4,22.7,8c2.4,6.6-0.2,14.1-6.5,18.1c-11.7,7.4-23.6,14.7-35.4,22
		c-6.1,3.8-12.3,7.6-18.4,11.4c-5.3,3.3-10.9,3.8-16.4,0.7c-5.5-3.1-7.9-8.1-7.9-14.4c0-17.6-0.1-35.2-0.2-52.8c0-3.9-1-5.6-3.2-5.6
		c-2.2,0-3.3,1.8-3.3,5.5c0.1,74.4,0.2,148.8,0.4,223.3c0,2.9-0.8,4.1-3.5,4.9c-6,1.7-11.2,4.8-16.2,8.5c-1,0.8-2.8,1.1-4.1,0.9
		C135,351.1,131.3,350.4,127.5,349.9z"/>
	<path class="st0" d="M297.1,512.8c0-1.1,0-2.1,0-3c0-10.8,0-21.6,0-32.5c0-0.9,0.2-2-0.2-2.7c-0.6-1-1.5-2.3-2.5-2.4
		c-0.9-0.1-2.2,1-2.8,1.9c-0.5,0.8-0.4,2.1-0.4,3.1c-0.1,10.8-0.1,21.6-0.2,32.5c0,1,0,1.9,0,3.1c-21.8,0-43.3,0-65.1,0
		c0-1.1,0-2.1,0-3c0-11.1-0.1-22.2-0.1-33.3c0-1,0.2-2.2-0.3-2.9c-0.7-1.1-2-2.4-3-2.4c-1,0-2.2,1.5-2.8,2.6
		c-0.5,0.7-0.2,1.9-0.2,2.9c0,11,0,22,0,33c0,1,0,1.9,0,3.1c-28.9,0-57.4,0-86.3,0c0-0.9-0.1-1.9-0.1-2.8c0-11.2,0-22.4,0-33.6
		c0-0.8,0.3-1.8-0.1-2.4c-0.7-1.1-1.7-2.5-2.8-2.6c-0.8-0.1-2.1,1.3-2.8,2.3c-0.4,0.6-0.2,1.7-0.2,2.6c-0.1,11.2-0.1,22.4-0.1,33.6
		c0,0.9,0,1.8,0,2.9c-10.9,0-21.6,0-32.4,0c-0.1-0.4-0.3-0.9-0.3-1.3c0.1-13.3-0.1-26.5,0.5-39.8c0.6-16,13.2-30.9,28.8-34.6
		c3.7-0.9,7.6-1.4,11.5-1.5c28-0.1,55.9-0.1,83.9-0.1c19,0,33.9,11.8,38.4,30.3c0.4,1.6,0.6,3.4,1.2,5.1c0.6-2.4,1.1-4.9,1.9-7.2
		c5.6-16.5,20.3-27.2,38.3-27.3c28.3-0.2,56.6-0.2,85,0c18.8,0.2,33.3,12.1,37.8,30.4c0.7,2.9,0.9,6.1,0.9,9.1
		c0.2,11.5,0.2,22.9,0.2,34.4c0,1.2,0.5,2.7-1.6,2.6c-10.2,0-20.4,0-30.9,0c-0.1-1.1-0.2-2-0.2-3c-0.1-11-0.1-22-0.1-33
		c0-0.9,0.2-2.1-0.3-2.6c-0.8-1-2.1-2.2-3.2-2.2c-0.9,0-2,1.4-2.6,2.4c-0.4,0.8-0.2,1.9-0.2,2.9c0,10.7,0,21.5,0,32.2
		c0,1,0,1.9,0,3.1C354.6,512.8,326,512.8,297.1,512.8z"/>
	<path class="st0" d="M232.5,174.9c0,1.8,0,3.4,0,5c0,5.9,0.1,11.7,0,17.6c0,1.9,0.5,2.7,2.5,2.5c0.5-0.1,1.1,0,1.6,0
		c71.9,0,143.8,0,215.7,0c3.9,0,3.9,0,3.9-4c0-50.9,0-101.7,0-152.6c0-3.5,0-3.5-3.6-3.5c-72.2,0-144.3,0-216.5,0
		c-3.5,0-3.5,0-3.5,3.6c0,18.9,0,37.9,0,56.8c0,2.3-0.7,3.2-2.9,4.3c-5.5,2.6-10.8,5.8-16.1,8.7c-0.9,0.5-1.8,1-3.1,1.7
		c-0.1-1.3-0.2-2.1-0.2-2.8c0-27.3,0-54.7,0-82c0-5.4,2-9.5,7.1-11.6c1.5-0.6,3.2-0.8,4.8-0.8c81.4,0,162.9,0,244.3,0
		c7.3,0,11.6,4.3,11.8,11.5c0,0.9,0,1.8,0,2.7c0,58.7,0,117.4,0,176.2c0,2-0.1,4-0.5,5.9c-0.9,4-4.9,7.4-9.1,7.8
		c-1.2,0.1-2.3,0.1-3.5,0.1c-80.5,0-161.1,0-241.6,0c-2.5,0-5.1-0.3-7.3-1.3c-3.9-1.8-5.8-5.3-5.9-9.6c-0.1-7.1-0.1-14.3,0-21.4
		c0-0.9,0.5-2.1,1.1-2.5c6.5-4.2,13.1-8.2,19.7-12.3C231.3,174.8,231.7,174.9,232.5,174.9z"/>
	<path class="st0" d="M128.4,368c-7.8,17.3-6.9,33.6,2.1,49.9c-1.9,0.3-3.3,0.6-4.8,0.8c-16.2,2.3-29,10.3-38.5,23.5
		c-1.3,1.8-2.7,2.5-4.9,2.5c-13.2-0.1-26.3-0.1-39.5,0c-2.4,0-3.1-0.7-3-3.1c0.1-10.9,0.1-21.8,0-32.7c0-0.8,0-1.6-0.1-2.4
		c-0.2-2-1.5-3.4-3.3-3.1c-1.3,0.2-2.4,1.7-3.3,2.9c-0.4,0.6-0.2,1.7-0.2,2.6c0,10.9-0.1,21.8-0.1,32.7c0,2.3-0.6,3.1-3,3.1
		c-8.9-0.1-17.9-0.1-26.8,0c-2.3,0-3.2-0.7-3.1-3.1c0.4-13.5,0-27.1,1-40.5c1.1-15.4,14.9-29.6,30.1-32.2c3.3-0.6,6.6-0.9,9.9-0.9
		c28-0.1,55.9,0,83.9,0C125.8,368,126.8,368,128.4,368z"/>
	<path class="st0" d="M386.5,418.4c8.9-16.3,9.5-32.8,1.7-49.8c1.4-0.1,2.3-0.2,3.2-0.2c26.7,0,53.4-0.1,80.1,0
		c18.1,0.1,32.1,9.8,37.8,26.5c1.4,4.2,2,8.8,2.2,13.3c0.4,11.2,0.2,22.4,0.4,33.5c0,2.4-0.8,3.1-3.1,3.1c-9-0.1-18-0.1-27.1,0
		c-2.2,0-2.7-0.8-2.7-2.8c0-10.9,0-21.8-0.1-32.7c0-0.8,0.1-1.7-0.1-2.4c-0.5-1.7-1.5-2.9-3.4-2.8c-2.1,0.1-3.1,1.4-3.3,3.3
		c-0.1,1.2-0.1,2.3-0.1,3.5c0,10.4-0.1,20.7,0,31.1c0,2.3-0.7,2.9-2.9,2.9c-11.7-0.1-23.5,0-35.2-0.1c-1.2,0-2.9-0.7-3.6-1.7
		c-10.5-14.4-24.5-22.5-42.3-24.1C387.6,418.9,387.3,418.7,386.5,418.4z"/>
	<path class="st0" d="M221.2,368.3c25.2,0,49.8,0,74.8,0c-8,17.2-7.5,33.9,1.9,50.7c-14.9,0.7-27.8,5.8-38.6,16.1
		c-11.1-10.9-24.3-16.7-40.2-17.3C228,401.5,228.8,385.2,221.2,368.3z"/>
	<path class="st0" d="M376.1,391.8c0,19-15.3,34.2-34.3,34.1c-18.8-0.1-34-15.3-34-34.2c0-19,15.3-34.2,34.3-34.1
		C361,357.8,376.1,372.9,376.1,391.8z"/>
	<path class="st0" d="M175.8,356.8c19,0,34.2,15.2,34.1,34.3c-0.1,18.9-15.2,34-34.1,34c-18.9,0-34.2-15.3-34.1-34.3
		C141.8,371.9,156.9,356.8,175.8,356.8z"/>
	<path class="st0" d="M264.7,289.7c18.6-0.1,33.8,15,33.8,33.6c0.1,18.6-15,33.7-33.7,33.8c-18.6,0.1-33.8-14.9-33.9-33.5
		C230.8,304.9,245.8,289.8,264.7,289.7z"/>
	<path class="st0" d="M429.3,290c18.6,0,33.7,15.2,33.6,33.9c0,18.6-15.2,33.7-33.8,33.7c-18.6,0-33.7-15.1-33.8-33.7
		C395.3,305.2,410.5,290,429.3,290z"/>
	<path class="st0" d="M83,289.7c18.7,0.3,33.7,15.5,33.4,34c-0.3,18.8-15.5,33.7-34.3,33.4c-18.8-0.3-33.6-15.6-33.3-34.4
		C49.2,304.3,64.5,289.5,83,289.7z"/>
	<path class="st0" d="M121.4,1c16.4-0.3,32,13.4,31.9,32c-0.1,17.6-14.3,31.9-31.8,31.9c-17.7,0-31.9-14.4-31.9-32.1
		C89.5,14.7,104.9,0.7,121.4,1z"/>
	<path class="st0" d="M256.5,107.5c2.7-2.2,5.8-4.5,8.8-6.9c9.2-7.3,18.4-14.5,27.6-21.8c2.5-2,5.2-3.3,8.5-2.3
		c3.4,1,5.6,3.3,6.2,6.8c0.7,3.4-0.8,6.2-3.4,8.3c-5.5,4.5-11.1,8.9-16.7,13.3c-6.2,4.9-12.4,9.7-18.5,14.6
		c-1.6,1.3-2.2,1.1-3.5-0.6C262.9,115,259.7,111.5,256.5,107.5z"/>
</g>
</svg>
