<?xml version="1.0" encoding="utf-8"?>
<!-- Generator: Adobe Illustrator 21.0.0, SVG Export Plug-In . SVG Version: 6.00 Build 0)  -->
<svg version="1.1" id="Layer_1" xmlns="http://www.w3.org/2000/svg" xmlns:xlink="http://www.w3.org/1999/xlink" x="0px" y="0px"
	 viewBox="0 0 512 512" style="enable-background:new 0 0 512 512;" xml:space="preserve">
<style type="text/css">
	.st0{fill:#4984C5;}
</style>
<g>
	<path class="st0" d="M512.1,301.9c-170.1,0-339.8,0-509.8,0c0-0.9-0.1-1.8-0.1-2.6c0-84.3,0.1-168.5-0.1-252.8
		c0-21.8,15.7-40.6,36.3-44.4c2.9-0.5,5.9-0.9,8.8-0.9c139.9,0,279.8,0,419.6-0.1c22.2,0,40.7,16.2,44.3,36.4c0.5,3,0.9,6.1,0.9,9.1
		c0,84.2,0,168.3,0,252.5C512.1,300,512.1,300.8,512.1,301.9z M257.2,270.1c39.5,0,79.1,0.1,118.6-0.1c5.5,0,11.3-0.7,16.5-2.5
		c19-6.7,30.1-22.9,30.2-43.1c0.1-19.1,0-38.1,0-57.2c0-20.3,0.1-40.6,0-60.9C422.3,80.9,403,61.2,377.9,61
		c-30.1-0.2-60.1-0.1-90.2,0c-10.9,0.1-21,3.4-29.7,10.2c-1.4,1.1-2.4,1-3.7-0.1c-8.4-6.8-18-10.1-28.8-10.1c-29.3,0-58.7,0-88,0.1
		c-3.8,0-7.6,0.3-11.3,1.3c-20.5,5.1-34.2,22.4-34.3,43.5c-0.2,39.8-0.1,79.6,0,119.5c0,7.9,1.9,15.4,6,22.2
		c9,14.9,22.3,22.5,39.6,22.6C177.4,270.2,217.3,270.1,257.2,270.1z"/>
	<path class="st0" d="M512.1,332.1c-0.3,10.4,0.9,20.6-2.9,30.5c-6.1,16.2-22.1,28.2-39.4,28.9c-1.5,0.1-3.1,0.1-4.6,0.1
		c-138.8,0-277.6,0-416.4,0c-17.6,0-31.2-7.4-40.4-22.4c-4-6.5-6.2-13.8-6.2-21.6c0-5.1,0-10.3,0-15.6
		C172.2,332.1,342,332.1,512.1,332.1z"/>
	<path class="st0" d="M257.1,511.1c-50,0-100.1-0.1-150.1,0.1c-7.3,0-15-6.2-15.2-14.6c-0.2-8.4,6.5-15.3,14.9-15.3
		c15-0.1,30-0.1,45,0c2.5,0,3.4-0.8,3.9-3.2c4.3-17.7,8.8-35.4,13.1-53.1c0.7-2.8,1.8-3.6,4.7-3.6c35.9,0.1,71.9,0.1,107.8,0.1
		c20,0,39.9,0.1,59.9-0.1c2.6,0,3.6,0.8,4.2,3.2c4.4,18,8.9,35.9,13.3,53.9c0.5,2.1,1.3,2.8,3.4,2.8c15.1-0.1,30.2-0.1,45.2,0
		c8.7,0,15.3,7,15.1,15.4c-0.3,8.2-7.6,14.5-15.3,14.4C357.2,511.1,307.1,511.1,257.1,511.1z"/>
	<path class="st0" d="M273.1,171.4c0-21.4,0-42.8,0-64.2c0-10.2,6.2-16.4,16.4-16.4c29,0,58,0,86.9,0c10,0,16.2,6.2,16.2,16.3
		c0,39,0,78,0,117c0,9.8-6.3,16.1-16.1,16.1c-33.4,0-66.8,0-100.2,0.1c-2.6,0-3.3-0.8-3.3-3.3C273.1,215.1,273.1,193.2,273.1,171.4z
		 M333,150.6c4.8,0,9.6,0,14.3,0c8.7-0.1,15.3-6.6,15.3-14.9c0-8.4-6.6-14.9-15.3-14.9c-9.7-0.1-19.5-0.1-29.2,0
		c-8.5,0.1-15.1,6.6-15.2,14.8c-0.1,8.3,6.6,15,15.2,15.1C323.1,150.6,328.1,150.6,333,150.6z M332.8,180.5c-4.9,0-9.7,0-14.6,0
		c-8.6,0.1-15.3,6.7-15.2,15c0,8.2,6.7,14.8,15.1,14.8c9.8,0.1,19.7,0.1,29.5,0c8.4-0.1,15.1-6.7,15.1-14.9c0-8.2-6.6-14.9-15-15
		C342.8,180.4,337.8,180.5,332.8,180.5z"/>
	<path class="st0" d="M241.2,171.5c0,21.9,0,43.9,0.1,65.8c0,2.4-0.7,3-3.1,3c-33.6-0.1-67.2,0-100.8-0.1c-9.3,0-15.7-6.4-15.7-15.6
		c0-39.4,0-78.7,0-118.1c0-9.2,6.4-15.6,15.7-15.7c29.3,0,58.7,0,88,0c9.4,0,15.7,6.4,15.8,15.9
		C241.2,128.3,241.2,149.9,241.2,171.5z M181.4,120.7c-4.9,0-9.7,0-14.6,0c-8.5,0.1-15.1,6.6-15.2,14.8c-0.1,8.3,6.6,15,15.1,15.1
		c9.8,0.1,19.7,0.1,29.5,0c8.4-0.1,15.1-6.7,15.1-14.9c0-8.2-6.6-14.8-15-14.9C191.4,120.7,186.4,120.7,181.4,120.7z M181.3,210.3
		c5,0,9.9,0,14.9,0c8.4-0.1,15.1-6.6,15.2-14.8c0-8.4-6.6-15-15.2-15c-9.8-0.1-19.7-0.1-29.5,0c-8.4,0.1-15,6.7-15,14.9
		c0,8.2,6.7,14.8,15.1,14.9C171.6,210.4,176.4,210.3,181.3,210.3z"/>
</g>
</svg>
