<?xml version="1.0" encoding="utf-8"?>
<!-- Generator: Adobe Illustrator 21.0.0, SVG Export Plug-In . SVG Version: 6.00 Build 0)  -->
<svg version="1.1" id="Layer_1" xmlns="http://www.w3.org/2000/svg" xmlns:xlink="http://www.w3.org/1999/xlink" x="0px" y="0px"
	 viewBox="0 0 512 512" style="enable-background:new 0 0 512 512;" xml:space="preserve">
<style type="text/css">
	.st0{fill:#00B49A;}
</style>
<g>
	<path class="st0" d="M139.5,512c-0.1-0.1-0.2-0.3-0.3-0.4c-6.7-2.6-8.7-8-9.6-14.6c-2.8-22.1-5.9-44.2-8.8-66.2
		c-2.8-21.1-5.6-42.1-8.4-63.2c-2.4-17.9-4.8-35.9-7.3-53.8c-1-7.6,1.5-13.2,7.6-15.5c2.3-0.9,5-1,7.5-1c51.4-0.1,102.9,0,154.3,0
		c45.8,0,91.7,0,137.5,0c3.6,0,7.1,0.3,10.2,2.6c4.3,3.3,5.5,7.8,4.8,12.9c-2.4,17.9-4.8,35.7-7.2,53.6c-2.2,16.1-4.3,32.2-6.4,48.3
		c-2.5,18.5-5,36.9-7.5,55.3c-1.4,10.2-2.8,20.4-4.1,30.6c-0.7,5.1-3.4,8.6-8.1,10.6c-0.4,0.2-0.8,0.6-1.2,0.9
		C308.3,512,223.9,512,139.5,512z M289.6,446.5c1.2,0.4,2.2,0.8,3.2,1.2c7.7,2.9,15.4,5.5,23.8,4.6c7.9-0.9,12.7-7.3,10.7-15
		c-1.1-4.1-2.8-8.2-4.9-11.9c-4.5-8.1-10.6-14.9-17.1-21.5c-1.3-1.3-1.5-2.1-0.1-3.5c2.9-3,5.6-6.2,8.5-9.2c0.8-0.8,2.1-1.5,3.2-1.7
		c4.5-0.8,7.3-4.8,6.4-9.3c-0.2-1.1,0.1-2.4,0.5-3.6c1.1-3.3,2.7-6.4,3.6-9.8c1.8-6.9-1.8-13.1-8.8-14.5c-3.3-0.7-7-0.9-10.3-0.2
		c-5.6,1.1-11.1,3-16.6,4.8c-1.8,0.6-2.5,0.3-3.3-1.3c-2.3-4.1-4.5-8.4-7.4-12.1c-9-11.5-21.8-12.3-31.6-1.6c-3.7,4-6,9.2-9.1,13.7
		c-0.5,0.7-1.7,1.7-2.3,1.5c-2-0.7-4-1.3-5.1-3.7c-1.6-3.4-5.9-5-9.1-3.2c-2.6,1.5-5.1,1.5-7.8,1.3c-1.2-0.1-2.4,0-3.6,0.1
		c-7.7,1-12.2,6-11,13.6c0.7,4.4,2.5,8.8,4.6,12.8c4.5,8.4,10.8,15.4,17.5,22.1c1.3,1.3,1.4,2.1,0.1,3.5c-3,3.1-6,6.3-8.8,9.6
		c-5.5,6.6-10.5,13.6-13,22c-2.4,7.7,0.7,14.4,8,16.4c2.4,0.7,5.1,0.7,7.6,0.6c6.5-0.2,12.6-2.4,18.7-4.7c3.3-1.3,3.3-1.4,4.9,1.9
		c2.6,5.4,5.7,10.4,10.2,14.5c8.1,7.4,18.7,7.5,26.6,0c2.4-2.3,4.6-5,6.5-7.8C286.1,453.3,287.7,450,289.6,446.5z"/>
	<path class="st0" d="M276.3,1.7c0,0,6.8,1.3,10.2,2C298,6,308.6,10.4,317,18.9c8.4,8.5,12.8,18.9,14.9,30.4
		c2.4,13.3,2.1,26.6-0.1,39.8c-4,24.2-13.8,45.6-32.5,62.2c-7.6,6.7-16.2,11.7-26.3,13.9c-9.9,2.1-19.3,0.5-28.4-3.5
		c-17-7.5-28.4-20.8-36.2-37.2c-11.7-24.9-15.2-51.1-9.9-78.1c4.4-22.4,18.4-36.3,40.6-41.9c4.8-1.2,14.7-3,14.7-3s7.3-1,11-1
		C268.7,0.7,276.3,1.7,276.3,1.7z M251.3,86.4c1.4-2.4,2.4-4,3.2-5.7c3.5-7.1,1.3-13.6-5.7-17.1c-4.6-2.3-9.5-3.2-14.6-2.8
		c-15,1.2-24,11.2-21.2,25.8c1,5,1.8,10.1,3.1,15c3.7,13.6,9.7,26.1,19.6,36.4c6.5,6.8,14.2,11.6,23.7,13.1
		c10.4,1.6,19.5-1.8,27.5-8.2c13.3-10.7,21.8-24.8,27-40.9c3-9.3,4.1-18.8,2.1-28.4c-1.4-6.7-5.4-9.1-11.8-6.3
		c-5.3,2.3-10.4,5.1-15.5,7.8c-9.1,4.9-18.2,9.6-28.6,10.9C257.5,86.2,254.7,86.2,251.3,86.4z"/>
	<path class="st0" d="M142,278.6c1.3-4.9,2.2-9.4,3.7-13.8c6-17.2,12.2-34.4,18.4-51.6c2.1-5.8,6.3-9.6,11.7-12.2
		c12.8-6,25.8-11.9,38.6-17.9c2.1-1,4-2.5,5.9-4c4.4-3.6,8.8-7.3,13-11c1.3-1.1,2.1-1.2,3.4,0.1c8.7,8.7,17.4,17.4,26.2,26.1
		c1.4,1.4,1.4,2.8,1.1,4.4c-1.4,9.6-2.9,19.2-4.3,28.7c-2.2,14.6-4.4,29.3-6.6,43.9c-0.2,1.6-0.7,3.2-0.7,4.8c0,2.3-1.2,2.7-3.2,2.7
		c-34.7-0.1-69.4,0-104.1,0C144.2,278.8,143.3,278.7,142,278.6z"/>
	<path class="st0" d="M390,278.6c-1.1,0.1-2,0.2-2.9,0.2c-34.7,0-69.4,0-104.1,0.1c-2.3,0-3-0.7-3.3-2.9c-3.2-22-6.5-43.9-9.8-65.8
		c-0.6-4-1.4-8.1-1.8-12.1c-0.1-1.2,0.4-2.7,1.2-3.6c8.7-8.8,17.5-17.4,26.1-26.2c1.2-1.2,2.1-1.3,3.4-0.1c2.6,2.3,5.5,4.3,7.9,6.8
		c6.1,6.1,13.6,9.7,21.3,13.1c9.5,4.2,19,8.7,28.4,13.1c5.5,2.6,9.4,6.7,11.7,12.5c8,20.3,15.7,40.7,21.1,61.9
		C389.7,276.5,389.8,277.4,390,278.6z"/>
	<path class="st0" d="M289.8,402.1c-0.9,1.6-1.3,3.1-2.3,3.8c-7,5.5-14.1,10.9-21.2,16.3c-1.3,1-2.3,1.1-3.6,0.1
		c-7.1-5.4-14.2-10.8-21.2-16.3c-2.6-2.1-2.6-5.9,0-7.9c7-5.4,14-10.7,21-16.1c1.5-1.1,2.6-1.1,4.1,0c6.8,5.3,13.8,10.5,20.6,15.8
		C288.2,398.9,288.8,400.5,289.8,402.1z M264.4,414.3c6.7,0,12.1-5.6,12.1-12.2c0-6.7-5.6-12.2-12.2-12.1
		c-6.7,0.1-12.2,5.5-12.1,12.2C252.2,408.8,257.8,414.3,264.4,414.3z"/>
	<path class="st0" d="M281.9,360.9c-0.4,0.4-0.9,0.9-1.4,1.2c-4.9,2.8-9.7,5.6-14.7,8.2c-0.8,0.4-2.2,0.3-3-0.2
		c-4.7-2.5-9.3-5.3-14-7.8c-1.6-0.9-2-1.7-1.1-3.4c2.4-4.8,4.9-9.5,9.1-13.1c5.2-4.4,10.3-4.3,15.4,0.1c4.4,3.8,7.1,8.9,9.4,14.1
		C281.7,360.2,281.7,360.4,281.9,360.9z"/>
	<path class="st0" d="M264.4,461.6c-3.7-0.1-6.7-1.6-8.7-4.3c-3-4-5.5-8.3-8.2-12.5c-0.7-1.1-0.3-2,0.9-2.7
		c4.9-2.7,9.7-5.5,14.7-8.2c0.8-0.4,2.2-0.3,2.9,0.1c4.8,2.6,9.5,5.3,14.2,8c1.1,0.6,2,1.2,1.2,2.5c-2.8,4.4-5.4,9-8.6,13.1
		C270.8,460.2,267.7,461.6,264.4,461.6z"/>
	<path class="st0" d="M231.3,407.3c0.4,1.5,0.6,2.2,0.7,2.9c0.4,8.9,1.8,17.7,4.2,26.3c0.4,1.4,0.3,2.4-1.3,3
		c-5.9,2.3-11.9,4.5-18.3,4.9c-6.9,0.4-8.8-2-6.4-8.5c3-8.4,8.7-15.1,14.5-21.6C226.5,412.2,228.6,410.1,231.3,407.3z"/>
	<path class="st0" d="M297.5,408c0.5,0.2,1,0.3,1.2,0.6c7.7,7.9,15.1,15.9,19.6,26.2c0.3,0.8,0.6,1.6,0.8,2.4c1.4,5.4,0,7.3-5.6,7.3
		c-7.2,0-13.8-2.6-20.3-5.3c-0.4-0.2-0.9-1.3-0.8-1.8c2.7-9.3,3.9-18.8,4.5-28.4C297,408.8,297.2,408.5,297.5,408z"/>
	<path class="st0" d="M230.7,396.9c-5.1-6.1-10-11.6-14.4-17.5c-2.6-3.6-4.5-7.8-6.4-11.8c-1-2-1.5-4.5,0.2-6.5
		c1.3-1.5,6.2-2.2,8.3-1.2c0.6,0.3,1.1,1,1.6,1.6c2.6,3.4,6.1,4.4,9.9,2.5c2.5-1.3,4.2,0.4,6.1,1.3c0.4,0.2,0.4,1.4,0.2,2.1
		c-2.4,8.7-3.8,17.6-4.2,26.6c0,0.5-0.2,1-0.3,1.5C231.6,395.7,231.4,395.9,230.7,396.9z"/>
	<path class="st0" d="M297.2,396.4c-0.3-3.2-0.4-6.1-0.9-8.9c-1.2-6.8-2.4-13.5-3.8-20.2c-0.3-1.4,0.1-2.2,1.3-2.5
		c5.7-1.7,11.3-3.8,17.1-4.8c8.3-1.5,10.6,1.9,7.4,9.6c-1.1,2.6-2,4.9-5.4,5.7c-3.3,0.8-4.9,4.3-4.6,7.9c0.1,0.9,0,2-0.5,2.6
		c-3,3.5-6.1,6.8-9.3,10.1C298.3,396,297.9,396,297.2,396.4z"/>
	<path class="st0" d="M256.9,375.9c-5.6,4.2-10.7,8-16.4,12.3c0.2-1.9,0.3-3.1,0.5-4.3c0.8-4.2,1.6-8.5,2.4-12.7
		c0.3-1.6,1-2.4,2.8-1.3C249.5,371.9,253,373.7,256.9,375.9z"/>
	<path class="st0" d="M256.9,428.2c-4.3,2.4-8.2,4.6-12.5,7.1c-2.4-6.2-3-12.4-3.9-18.5c0.2-0.1,0.4-0.3,0.6-0.4
		C246.1,420.2,251.2,424,256.9,428.2z"/>
	<path class="st0" d="M271.9,428.2c5.5-4.1,10.6-7.9,16.2-12.2c-0.4,6.9-1.7,12.9-3.6,19.3C280.3,432.9,276.3,430.7,271.9,428.2z"/>
	<path class="st0" d="M285,368.6c1.3,6.7,2.4,12.6,3.5,18.5c-0.3,0.2-0.6,0.3-0.9,0.5c-5.1-3.8-10.2-7.6-15.7-11.7
		C276.2,373.5,280.2,371.3,285,368.6z"/>
</g>
</svg>
