<?xml version="1.0" encoding="utf-8"?>
<!-- Generator: Adobe Illustrator 21.0.0, SVG Export Plug-In . SVG Version: 6.00 Build 0)  -->
<svg version="1.1" id="Layer_1" xmlns="http://www.w3.org/2000/svg" xmlns:xlink="http://www.w3.org/1999/xlink" x="0px" y="0px"
	 viewBox="0 0 457.6 129.7" style="enable-background:new 0 0 457.6 129.7;" xml:space="preserve">
<style type="text/css">
	.st0{fill:#FFFFFF;}
</style>
<g>
	<path class="st0" d="M133.7,96.8c4.9-0.8,10.2,1.2,15.7,2.3c12.7,2.6,25.3,5.4,37.9,8.2c1.5,0.3,3.2,0.2,4,2
		c1.9,4.2,1.4,5.1-3.2,5.8c-18.9,3-37.8,6.1-56.7,9.2c-11.1,1.8-22.2,3.6-33.2,5.3c-1.7,0.3-3.4,0.1-5.1-0.4
		C74.7,123,56.1,117,37.5,111c-3.3-1.1-4.1-2.8-3.4-6c0.4-1.7,1.8-1.4,2.7-1.4c6-0.5,12.1-0.9,18.1-1.3c15.4-1.1,30.7-2.2,46.1-3.2
		C111.6,98.2,122.2,97.5,133.7,96.8z"/>
	<path class="st0" d="M2.5,32.3C4,41,9.6,45.2,15.8,48.8c8.8,5.2,18.6,8.3,28.3,11.5c17.2,5.6,34.5,10.9,52.2,14.5
		c14,2.9,27.9,3.1,41.8-0.5c3.1-0.8,6.1-1.8,8.6-3.9c3-2.6,3.3-4.6,0.8-7.8c-3-3.8-7.1-6.2-11.2-8.7c-0.5-0.3-1-0.5-1.5-0.9
		c1-0.7,2-0.5,2.9-0.3c7.9,2.4,15.5,5.5,21.8,10.9c2.8,2.4,5.3,5.3,5.4,9.4c0,2.2-0.6,3.9-2.1,5.5c-4.3,4.4-9.7,6.5-15.6,7.7
		c-1.8,0.4-3.7,0.8-5.5,0.8c-2.3,0-2.2,1.3-1.9,2.9c0.1,0.6,0.4,1.1,0.5,1.6c0.4,1.7,0.1,2.6-2,2.7c-2.9,0.2-5.7,0.5-8.6,0.7
		c-13.2,0.8-26.4,1.6-39.6,2.4c-6.3,0.4-12.6,0.6-19,1c-12.5,0.7-25,1.4-37.4,2.3c-2.1,0.2-2.7-0.6-3.2-2.4
		c-1.6-6.8-3.4-13.6-5.1-20.4c-1.2-4.9-2.5-9.7-3.6-14.6c-0.6-2.5-1.7-4.3-4.2-5.5c-5.1-2.6-10-5.7-13.9-10C-0.2,43.6-1,38.6,1.3,34
		C1.5,33.6,1.8,33.3,2.5,32.3z M35.3,66.8c-0.6,0.7-0.4,1.3-0.3,1.9c1.3,6.2,2.7,12.3,4,18.5c1,4.6,0.9,4.7,5.7,4.5
		c9-0.4,18-1.2,27.1-1.5c8.9-0.2,17.8-1,26.7-1.2c4-0.1,8-0.2,12.7-1C84.6,83.8,59.7,76,35.3,66.8z"/>
	<path class="st0" d="M134,69.5c-13.7,3.1-42.9-0.4-58.5-6.2c8.1-0.5,15.8,0,23.5,0.3c7.6,0.3,15.2,0.3,23.2,0.4
		c-0.6-4.4-2.2-8.2-3.3-12.1c-2.9-9.9-5.8-19.9-8.8-29.8c-1.1-3.7-1.1-3.7-5-3.8c-14.5-0.5-29.1-0.9-43.6-1.4
		c-11.9-0.4-23.9-0.9-35.8-1.3c-1.4-0.1-2.9-0.3-4.4,0.2c2.1,11.4,5.2,22.6,7.1,34c-0.3,0.2-0.5,0.3-0.8,0.5
		c-4.4-3-8.8-5.9-13.1-8.9c-0.7-0.5-1-1.4-1.1-2.2c-2-10.6-4-21.2-6-32c4.9-0.6,9.7-0.2,14.3,0.2c7,0.5,14.1,0.5,21.2,0.8
		c22.6,0.9,45.2,1.8,67.8,2.6c1,0,2,0.3,3,0.3c2.3,0.2,5.1-0.8,6.6,0.8c1.3,1.4,1.3,4,1.8,6.1c4.1,16.6,8.1,33.3,12.2,49.9
		C134.2,68.4,134.3,68.9,134,69.5z"/>
	<path class="st0" d="M219.3,21.7c0-3.6,0-6.8,0-9.9c0-3.2,0.1-3.2,3.4-3.2c0.9,0,1.7,0.1,2.5,0.1c0.8,1,0.5,2,0.5,3
		c0,11,0.1,21.9,0,32.9c0,1.4,1.2,3.6-1.9,3.8c-3.7,0.2-4.1,0.1-4.9-3.2c-7.3,5-14.5,4.8-19.5-0.5c-5.2-5.5-5.7-15-1.1-21.1
		C202.9,17.5,209.9,16.7,219.3,21.7z M219.3,33.4c0-4.6-2-7.8-5.7-9.3c-3.4-1.3-6.5-0.6-9.2,1.8c-3.4,3.1-3.5,7.2-2.4,11.2
		c1,3.3,3.3,5.7,7.1,6.1C215.2,44.1,219.4,40.1,219.3,33.4z"/>
	<path class="st0" d="M296.6,21.7c1.1-0.8,0-2.6,1.7-2.8c1.6-0.1,3.2-0.4,4.7,0.2c0.6,0.2,0.6,0.9,0.6,1.5c0,9.2,0,18.4,0,27.5
		c-6,0.6-6,0.6-6.7-3.1c-3.8,2.9-7.9,4.6-12.7,3.5c-3.3-0.7-5.8-2.4-7.8-5c-4.7-6.1-4.3-15.6,0.8-21.1
		C282,17.2,289.1,16.9,296.6,21.7z M297.2,33.4c0-4.6-2-7.9-5.7-9.2c-3.4-1.3-6.5-0.6-9.2,1.9c-3.3,3.2-3.5,7.2-2.3,11.2
		c1,3.3,3.3,5.7,7.1,6.1C293.1,44.1,297.3,40,297.2,33.4z"/>
	<path class="st0" d="M430.3,21.4c2.2-1.2,3.9-2.3,5.9-2.8c7.5-2,14.3,2.4,14.9,10.1c0.4,5.9,0.1,11.8,0.1,17.7c0,2.8-2,1.8-3.4,1.9
		c-1.6,0.2-2.8,0-2.7-2.1c0.1-4.9,0-9.8,0-14.7c0-3.3-1.2-6-4.3-7.3c-4.7-2-10.3,0.7-10.4,6.5c-0.1,4.8,0,9.5-0.1,14.3
		c0,3.5-0.1,3.4-3.7,3.4c-2,0-2.4-0.8-2.4-2.6c0.1-11.5,0.1-23.1,0-34.6c0-2.5,1.1-2.7,3.1-2.8c2.1,0,3.2,0.3,3.1,2.8
		C430.1,14.5,430.3,17.7,430.3,21.4z"/>
	<path class="st0" d="M134.2,11.3c0.7-0.1,1.3-0.3,1.8-0.3c5,0.1,4-0.6,5.7,3.9c3.1,8.8,6.3,17.5,9.6,26.9
		c2.3-6.2,4.3-11.9,6.4-17.5c1.2-3.4,2.5-6.7,3.5-10.2c0.7-2.4,1.9-3.7,4.6-3.2c0.8,0.2,1.7,0.1,2.6,0.1c0.3,1.7-0.6,2.9-1.1,4.2
		c-3.8,10.2-7.7,20.4-11.4,30.7c-0.8,2.4-2.3,2.5-4.3,2.4c-1.9-0.1-3.8,0.5-4.8-2.2c-4-10.9-8.2-21.8-12.2-32.7
		C134.3,12.9,134.3,12.1,134.2,11.3z"/>
	<path class="st0" d="M341,19.3c-0.8,2.3-2.7,3.6-4.2,5.3c-2,2.3-4.1,4.4-6.3,6.6c-1.6,1.6-1.7,2.9,0,4.7c3.8,3.9,7.4,8,11.5,12.5
		c-2.7,0-4.8-0.1-6.9,0c-1.9,0.1-2.7-1.5-3.7-2.6c-2.6-3-5.2-6.1-8.5-9c0,3-0.1,6.1,0,9.1c0.1,2.3-1.1,2.6-2.9,2.5
		c-1.8-0.1-3.3,0.2-3.3-2.6c0.1-11.5,0.1-23.1,0-34.6c0-2.6,1.2-2.6,3.2-2.7c2.1-0.1,3.1,0.5,3,2.9c-0.2,6.3-0.1,12.7-0.1,19.9
		c2.2-2.5,3.9-4.5,5.7-6.4c0.3-0.3,0.5-0.7,0.7-1.1C332,19.2,335.9,17.7,341,19.3z"/>
	<path class="st0" d="M379.4,33.3c0.8,7.7-5.2,15.7-15.3,15.6c-8.6-0.1-14.7-5.4-14.8-15.1c-0.1-10.7,7.4-15.4,14.9-15.6
		C373.3,18,379.9,25,379.4,33.3z M373.3,33.4c0.2-1.6-0.3-3.2-0.9-4.8c-2.6-5.8-10.9-6.9-14.6-1.9c-2.8,3.8-2.8,8-0.9,12.2
		c1.2,2.5,3.2,4.3,6.4,4.4C369.4,43.6,373.2,40.1,373.3,33.4z"/>
	<path class="st0" d="M265.3,19.2c-4.9,11.8-9.6,23.1-14.4,34.5c-0.5,1.2-1,2.4-1.5,3.6c-2.1,5.2-2.1,5.2-7.9,4.6
		c0.5-3.6,2.4-6.7,3.8-9.9c1.1-2.8,1.6-5.1,0.2-8.1c-3.2-6.9-5.7-14.1-8.5-21.1c-0.5-1.2-0.8-2.4-1.3-3.8c0.8-0.1,1.3-0.3,1.9-0.3
		c5.5,0.1,4.3-0.9,6.3,4.3c1.7,4.4,3.2,8.9,4.9,13.3c0.4,1.1,0.5,2.6,2.2,3.5c1.3-3.2,2.5-6.3,3.7-9.5c0.9-2.4,1.8-4.8,2.8-7.2
		C259.3,18.5,259.3,18.5,265.3,19.2z"/>
	<path class="st0" d="M412,27.1c-1.2,0.9-2.4,0.5-3.5,0.6c-1.5,0.1-2.5,0-3.4-1.8c-1.3-2.6-5.5-3.2-8-1.7c-2,1.2-2.2,3.7-0.2,4.9
		c1.4,0.9,3.1,1.4,4.8,1.9c2.2,0.7,4.4,1.3,6.4,2.4c5.1,2.9,5.7,9.2,1.2,13c-4.8,4-14.7,3.7-19-2.3c-0.6-0.9-1.1-2-1.4-3.1
		c-0.2-0.7-0.1-1.4,0.7-1.8c1.6-0.7,5,0.1,6,1.7c2,3.1,4.9,2.7,7.7,2.3c1.5-0.2,2.6-1.3,2.8-2.9c0.1-1.5-0.9-2.4-2.1-2.9
		c-2-0.8-4.1-1.4-6.2-1.9c-2-0.5-3.9-1.2-5.5-2.4c-4.3-3-4.4-9-0.3-12.2c4.3-3.4,11.6-3.6,16.2-0.4C410.6,22.1,411.7,24.4,412,27.1z
		"/>
	<path class="st0" d="M184.4,33.7c0,4.2-0.1,8.4,0,12.5c0.1,2.7-1.7,2.1-3.2,2.2c-1.6,0.1-3,0.2-3-2.3c0.2-8.4,0.1-16.7,0-25.1
		c0-2.6,1.6-2.2,3.1-2.2c1.7-0.1,3.1-0.1,3,2.4C184.3,25.4,184.4,29.5,184.4,33.7z"/>
	<path class="st0" d="M445.2,71c-0.5,0-0.7,0-0.8,0.1c-4.1,1.2-5.9,0.9-7.3-1.3c-1.3-1.9-1-5.4,0.7-7.7c1.8-2.5,4.7-3.5,7.5-2.6
		c0.5,0.2,1,0.7,1.6,0.7c1.1,0,2.1-2.1,3.1-0.3c0.6,1.1-0.3,2.5-0.5,3.8c-0.5,3-0.9,6-1.6,8.9c-1.1,4.1-4.5,6-8.6,5.3
		c-1-0.2-2-0.6-2.6-1.3c-0.6-0.7-1.6-1.7-0.8-2.6c0.7-0.8,1.6-0.3,2.6,0.4C442,76.8,444.3,75.7,445.2,71z M446.7,64.6
		c0-2-1.3-3.2-3.2-3.2c-2.4,0-4.5,2.2-4.5,4.8c0,2.2,1.3,3.6,3.4,3.5C444.6,69.6,446.7,67.1,446.7,64.6z"/>
	<path class="st0" d="M322.8,68.4c-2.6,3.4-6,4.6-8.7,3c-2.4-1.4-3.1-4.5-1.8-7.6c1.4-3.4,5.1-5.3,8.3-4.5c2.7,0.7,4,2.7,3.6,5.5
		c-0.2,1.2-0.6,1.8-1.9,1.7c-2.1-0.1-4.3,0-6.4,0c-0.5,0-1.2,0-1.3,0.8c-0.1,0.6,0.1,1.1,0.5,1.5c1.2,1.2,2.5,1.2,3.9,0.5
		C320.1,68.7,321.2,67.4,322.8,68.4z M315,64c1.8,0.9,3.4,0.5,4.9,0.5c0.6,0,1.2-0.1,1.4-0.7c0.3-0.8-0.1-1.4-0.7-1.8
		C318.9,60.6,317.2,61.2,315,64z"/>
	<path class="st0" d="M362.9,68.4c-0.6,0.7-0.9,1.2-1.3,1.6c-2.9,2.4-6.4,2.6-8.6,0.6c-2.1-2-2.1-5.8,0-8.7c2-2.7,6.1-3.8,8.8-2.2
		c1.8,1,2.7,3.6,2,5.6c-0.4,1.2-1.2,1-2,1.1c-2,0-4,0-6,0c-0.6,0-1.3,0-1.5,0.6c-0.3,0.7,0.1,1.4,0.6,1.9c1.3,1.1,2.6,1,4,0.2
		C360,68.6,361,67.6,362.9,68.4z M354.9,63.8c0.8,0.9,1.5,0.7,2.2,0.8c0.8,0,1.7,0,2.5,0c0.7,0,1.5-0.2,1.5-1.1c0-0.7-0.4-1.3-1-1.7
		C358.5,60.7,357,61.3,354.9,63.8z"/>
	<path class="st0" d="M376.4,71.5c-1.4-0.8-2.5,0.4-3.8,0.4c-3.4,0.2-5.5-1.6-5.6-5c-0.1-5.4,4.4-8.7,9.5-7.2
		c0.6,0.2,0.9,0.6,1.9,0.3c2.5-0.9,2.6-0.7,2.2,1.7c-0.4,2.6-1,5.1-1.4,7.7C379.1,71.2,378.5,72.3,376.4,71.5z M377.4,64.7
		c0-2-1.2-3.3-3.1-3.3c-2.4-0.1-4.5,2.1-4.6,4.7c-0.1,2.2,1.3,3.7,3.3,3.6C375.3,69.6,377.4,67.2,377.4,64.7z"/>
	<path class="st0" d="M394.9,69.7c0.4-2.1,0.7-4.1,1-6.1c0.2-1.3,0.3-2.6,0.9-3.8c0.9-1.7,2.2,0.2,3.3-0.1c0.8-0.2,1.6-0.6,2.5-0.7
		c2.8-0.3,5,1.5,4.8,4.2c-0.2,2.4-0.8,4.8-1.2,7.2c-0.2,1.2-0.9,1.4-1.8,1.2c-1.1-0.1-0.9-1-0.7-1.6c0.3-1.7,0.6-3.4,0.9-5.1
		c0.2-1.5,0.2-3-1.6-3.5c-1.9-0.5-3.5,0.3-4.1,2.2c-0.5,1.3-0.6,2.8-0.9,4.2c-0.1,0.7-0.3,1.4-0.4,2.1c-0.1,1.2-0.6,2-1.9,1.7
		C394.3,71.4,395.1,70.3,394.9,69.7z"/>
	<path class="st0" d="M420,69.7c0.4-2.1,0.7-4.1,1-6.1c0.2-1.3,0.3-2.6,0.9-3.8c0.9-1.7,2.2,0.2,3.3-0.1c0.8-0.2,1.6-0.6,2.5-0.7
		c3-0.3,5.1,1.6,4.8,4.6c-0.2,2.3-0.8,4.5-1.2,6.8c-0.2,1.2-0.9,1.4-1.8,1.3c-1.1-0.1-0.9-1-0.8-1.6c0.3-1.7,0.6-3.4,0.9-5.1
		c0.2-1.5,0.2-3.1-1.6-3.5c-1.9-0.5-3.5,0.3-4.1,2.2c-0.5,1.3-0.6,2.8-0.9,4.2c-0.1,0.7-0.3,1.4-0.4,2.1c-0.1,1.2-0.6,2-1.9,1.7
		C419.4,71.4,420.2,70.3,420,69.7z"/>
	<path class="st0" d="M343,69.4c0.8-4.1,1.6-8.6,2.4-13.1c0.2-1,0.6-1.6,1.7-1.4c1.3,0.2,0.9,1.2,0.8,2c-0.8,4.4-1.6,8.8-2.4,13.2
		c-0.2,1-0.4,1.7-1.5,1.6C342.7,71.7,342.9,70.7,343,69.4z"/>
	<path class="st0" d="M384.5,69.7c0.5-3,1.1-6,1.6-9c0.3-1.5,1.4-2.3,2.3-1.3c1.1,1.3,1.6,0.3,2.4,0c0.6-0.3,1.5-0.9,1.8,0.1
		c0.2,0.5-0.3,1.9-0.6,1.9c-4.5,0.5-3.9,4.3-4.6,7.1c-0.1,0.4-0.2,0.8-0.2,1.3c-0.1,1.2-0.5,2-1.8,1.8
		C383.9,71.5,384.7,70.4,384.5,69.7z"/>
	<path class="st0" d="M185.3,11c0,2-1.9,3.8-3.9,3.7c-2.1,0-3.8-1.7-3.8-3.8c0-2.3,1.8-4.1,4.1-4C183.5,7,185.3,8.9,185.3,11z"/>
	<path class="st0" d="M416.4,61.3c-0.5,3-1.1,5.9-1.6,8.9c-0.2,1-0.5,1.6-1.6,1.6c-1.3-0.1-1.1-1-1-1.9c0.5-3.1,1.1-6.2,1.6-9.3
		c0.2-1,0.7-1.6,1.7-1.3C416.8,59.5,416.5,60.5,416.4,61.3z"/>
	<path class="st0" d="M334.2,64.7c-1.1,0-2.3,0-3.4,0c-0.6,0-1.1-0.3-1.1-1c0-0.6,0.3-1.2,0.9-1.2c2.6-0.1,5.1-0.1,7.7,0
		c0.4,0,0.8,0.4,0.7,0.9c-0.1,0.6-0.4,1.2-1,1.2C336.8,64.7,335.5,64.6,334.2,64.7C334.2,64.6,334.2,64.7,334.2,64.7z"/>
</g>
</svg>
