<?xml version="1.0" encoding="utf-8"?>
<!-- Generator: Adobe Illustrator 16.0.0, SVG Export Plug-In . SVG Version: 6.00 Build 0)  -->
<!DOCTYPE svg PUBLIC "-//W3C//DTD SVG 1.1//EN" "http://www.w3.org/Graphics/SVG/1.1/DTD/svg11.dtd">
<svg version="1.1" id="Layer_1" xmlns="http://www.w3.org/2000/svg" xmlns:xlink="http://www.w3.org/1999/xlink" x="0px" y="0px"
	 width="394.906px" height="386.059px" viewBox="141.019 330.027 394.906 386.059"
	 enable-background="new 141.019 330.027 394.906 386.059" xml:space="preserve">
<path fill="#EE3138" d="M345.309,330.027v22.252c93.029,1.34,168.364,77.211,168.364,170.778
	c0,93.297-75.335,169.437-168.364,170.777v22.252c105.361-1.341,190.616-87.132,190.616-192.762S450.67,331.367,345.309,330.027z"/>
<path fill="#27BBAD" d="M345.309,352.279v22.252c80.697,1.34,146.112,67.292,146.112,148.526
	c0,81.232-65.415,147.185-146.112,148.525v22.252c93.029-1.341,168.364-77.212,168.364-170.777
	C513.673,429.49,438.338,353.351,345.309,352.279z"/>
<path fill="#4A82C3" d="M345.309,374.263v22.252c68.633,1.341,124.129,57.373,124.129,126.273
	c0,68.901-55.496,124.934-124.129,126.273v22.252c80.697-1.34,146.112-67.292,146.112-148.525S426.006,375.603,345.309,374.263z"/>
<radialGradient id="SVGID_1_" cx="59.3867" cy="903.4248" r="39.7998" gradientTransform="matrix(2.681 0 0 -2.681 193.1595 2959.1924)" gradientUnits="userSpaceOnUse">
	<stop  offset="0" style="stop-color:#000000"/>
	<stop  offset="1" style="stop-color:#FFFFFF"/>
</radialGradient>
<path opacity="0.74" fill="url(#SVGID_1_)" enable-background="new    " d="M352.373,430.439
	c-58.981,0-106.703,47.989-106.703,106.703c0,58.713,47.989,106.702,106.703,106.702c58.98,0,106.702-47.989,106.702-106.702
	C459.075,478.429,411.086,430.439,352.373,430.439z"/>
<path fill="#F68D35" d="M345.309,396.515v22.252c56.3,1.341,101.876,47.453,101.876,104.021S401.608,625.737,345.309,626.81v22.252
	c68.633-1.341,124.129-57.372,124.129-126.273C469.169,453.888,413.673,397.855,345.309,396.515z"/>
<rect x="141.019" y="693.565" fill="#EE3138" width="207.815" height="22.252"/>
<polyline fill="#27BBAD" points="347.309,671.313 187.131,671.313 187.131,693.298 347.309,693.298 "/>
<polyline fill="#4A82C3" points="346.642,649.062 237.534,649.062 237.534,671.313 346.642,671.313 "/>
<rect x="274.799" y="627.614" fill="#F68D35" width="72.368" height="22.252"/>
<path fill="#FFFFFF" d="M342.896,418.767c-57.373,0-104.29,46.649-104.29,104.29c0,57.372,46.649,104.289,104.29,104.289
	c57.372,0,104.289-46.648,104.289-104.289S400.268,418.767,342.896,418.767z"/>
<g>
	<g>
		<path fill="#0467A9" d="M393.834,482.842c-12.869-1.877-26.81,4.29-28.687,12.869c9.384,0,19.035,0,28.687,0
			C393.834,491.421,393.834,487.132,393.834,482.842z"/>
		<path fill="#0467A9" d="M298.392,497.319c-0.536,0-0.805,0-1.341,0c0,2.145,0,4.289,0,6.166c14.745,0,29.223,0,43.7,0
			c0-2.145,0-4.021,0-6.166c-4.826,0-9.384,0-14.209,0c0,1.876,0,3.753,0,5.897c-1.073-1.876-2.146-3.217-2.949-4.825
			c-0.536-0.805-1.072-1.072-2.146-1.072C313.941,497.587,306.166,497.319,298.392,497.319z"/>
		<path fill="#0467A9" d="M315.014,483.914c-0.269-0.268-1.072-0.536-1.608-0.536c-4.558,0-9.384,0-13.941,0
			c-0.804,0-1.608,0-2.413,0c0,4.29,0,8.312,0,12.333c8.311,0,16.354,0,24.934,0C319.571,491.689,317.158,487.668,315.014,483.914z"
			/>
		<path fill="#0467A9" d="M297.051,505.63c0,1.608,0,3.485,0,5.094c4.826,0,9.92,0,14.745,0c0-1.34,0-2.949,0-4.558
			c0.805,1.341,1.341,2.413,2.146,3.485c0.536,1.072,1.072,1.341,2.145,1.341c7.774,0,15.817,0,23.593,0c0.536,0,0.804,0,1.608,0
			c-0.269-1.877-0.269-3.485-0.269-5.094C326.006,505.63,311.528,505.63,297.051,505.63z"/>
		<path fill="#0467A9" d="M360.054,483.646c-5.094,0-9.92,0-15.014,0c0,4.021,0,8.043,0,12.064c5.094,0,9.92,0,15.014,0
			C360.054,491.689,360.054,487.399,360.054,483.646z"/>
		<path fill="#0467A9" d="M340.751,483.646c-4.826,0-9.384,0-14.21,0c0,4.021,0,8.043,0,12.064c4.826,0,9.384,0,14.21,0
			C340.751,491.421,340.751,487.668,340.751,483.646z"/>
		<path fill="#0467A9" d="M360.054,497.587c-5.094,0-9.92,0-15.014,0c0,2.145,0,4.021,0,6.166c5.094,0,9.92,0,15.014,0
			C360.054,501.608,360.054,499.731,360.054,497.587z"/>
		<path fill="#0467A9" d="M392.226,515.817c0.536,0,1.072,0,1.608,0c0-1.072,0-2.145,0-3.217c-9.92,0-19.571,0-29.223,0
			c0.536,2.681,1.072,3.217,3.485,3.217C376.14,515.817,384.183,515.817,392.226,515.817z"/>
		<path fill="#0467A9" d="M360.054,505.63c-5.094,0-9.92,0-15.014,0c0,1.608,0,3.218,0,5.094c5.094,0,9.92,0,15.014,0
			C360.054,508.848,360.054,507.238,360.054,505.63z"/>
		<path fill="#0467A9" d="M339.41,515.817c0.536,0,1.072,0,1.608,0c0-1.072,0-2.145,0-3.217c-8.311,0-16.622,0-25.201,0
			c0.269,0.536,0.805,1.072,0.805,1.341c0.536,1.34,1.608,1.876,3.217,1.876C326.542,515.817,332.976,515.817,339.41,515.817z"/>
		<path fill="#0467A9" d="M392.226,519.839c0.536,0,1.072,0,1.608,0c0-0.804,0-1.608,0-2.145c-8.848,0-17.694,0-26.542,0
			c0.805,1.608,2.146,2.413,4.021,2.413C378.284,519.839,385.255,519.839,392.226,519.839z"/>
		<path fill="#0467A9" d="M322.521,519.839c5.63-0.268,11.26,0,16.622,0c0.536,0,1.072,0,1.608,0c0-0.804,0-1.608,0-2.145
			c-7.239,0-14.478,0-21.716,0C319.839,519.303,320.911,519.839,322.521,519.839z"/>
		<path fill="#0467A9" d="M312.064,512.601c-5.094,0-9.92,0-15.014,0c0,1.072,0,2.145,0,3.217c5.094,0,9.92,0,15.014,0
			C312.064,514.478,312.064,513.673,312.064,512.601z"/>
		<path fill="#0467A9" d="M345.04,515.55c5.094,0,9.92,0,15.014,0c0-1.072,0-2.145,0-3.218c-5.094,0-9.92,0-15.014,0
			C345.04,513.673,345.04,514.745,345.04,515.55z"/>
		<path fill="#0467A9" d="M392.226,523.324c0.536,0,1.072,0,1.608,0c0-0.536,0-1.072,0-1.608c-7.507,0-15.014,0-22.521,0
			c1.341,1.072,2.146,1.608,3.754,1.608C380.697,523.324,386.596,523.324,392.226,523.324z"/>
		<path fill="#0467A9" d="M312.064,517.694c-5.094,0-9.92,0-15.014,0c0,0.805,0,1.341,0,2.145c5.094,0,9.92,0,15.014,0
			C312.064,519.035,312.064,518.23,312.064,517.694z"/>
		<path fill="#0467A9" d="M360.054,517.694c-5.094,0-9.92,0-15.014,0c0,0.805,0,1.341,0,2.145c5.094,0,9.92,0,15.014,0
			C360.054,519.035,360.054,518.499,360.054,517.694z"/>
		<path fill="#0467A9" d="M324.129,523.324c2.681,0,5.361,0,7.774,0c2.949,0,5.898,0,8.848,0c0-0.536,0-1.072,0-1.608
			c-6.435,0-12.869,0-19.035,0C322.252,522.788,323.057,523.324,324.129,523.324z"/>
		<path fill="#0467A9" d="M310.992,521.447c-4.29,0-8.848,0-13.137,0c-0.269,0-0.537,0-1.073,0.269c0,0.536,0,1.072,0,1.608
			c5.094,0,10.188,0,15.282,0C312.601,521.984,312.332,521.447,310.992,521.447z"/>
		<path fill="#0467A9" d="M360.054,523.324c0-0.536,0-1.072,0-1.608c-5.094,0-9.92,0-15.014,0c0,0.536,0,1.072,0,1.608
			C350.134,523.324,354.96,523.324,360.054,523.324z"/>
		<path fill="#0467A9" d="M326.006,524.933c-0.537,0-1.341,0-1.877,0c0,0.269,0,0.269-0.269,0.536
			c0.536,0.269,1.072,0.536,1.608,0.536c4.826,0,9.384,0,14.21,0c0.268,0,0.804-0.268,1.072-0.536
			c-0.269-0.268-0.805-0.536-1.072-0.536C335.121,524.933,330.563,524.933,326.006,524.933z"/>
		<path fill="#0467A9" d="M298.124,524.933c-0.268,0-0.805,0.269-1.073,0.536c0.268,0.269,0.805,0.536,1.073,0.536
			c2.145,0,4.558,0,6.702,0c2.145,0,4.558,0,6.703,0c0.268,0,0.804-0.268,1.072-0.536c-0.269-0.268-0.805-0.536-1.072-0.536
			C306.971,524.933,302.413,524.933,298.124,524.933z"/>
		<path fill="#0467A9" d="M378.016,524.933v0.269c0.805,0.268,1.609,0.536,2.413,0.536c4.29,0,8.579,0,12.869,0
			c0.268,0,0.536-0.269,0.804-0.536c-0.268-0.269-0.536-0.536-0.804-0.536C387.936,524.933,383.109,524.933,378.016,524.933z"/>
		<path fill="#0467A9" d="M346.112,524.933c-0.268,0-0.804,0.269-1.072,0.536c0.269,0.269,0.805,0.536,1.072,0.536
			c2.146,0,4.29,0,6.435,0s4.29,0,6.435,0c0.268,0,0.804-0.268,1.072-0.536c-0.269-0.268-0.805-0.536-1.072-0.536
			C354.691,524.933,350.402,524.933,346.112,524.933z"/>
		<path fill="#0467A9" d="M380.429,497.319c-5.094,0-10.188,0-15.281,0c-0.269,0-1.072,0.536-1.072,0.804
			c-0.536,1.877-0.805,3.485-1.341,5.362c4.826,0,9.115,0,13.405,0C376.14,500.805,377.748,498.392,380.429,497.319z"/>
		<path fill="#0467A9" d="M375.335,510.724c1.608,0,3.485,0,5.094,0c-2.145-0.804-3.753-2.681-4.289-5.094c-4.29,0-8.848,0-13.405,0
			c0.269,1.341,0.536,2.681,0.536,4.021c0,0.805,0.536,1.072,1.341,1.072C368.364,510.724,371.85,510.724,375.335,510.724z"/>
	</g>
</g>
<text transform="matrix(1 0 0 1 281.5645 555.8867)" font-family="'Roboto-Bold'" font-size="21.2416">Methodology</text>
</svg>
