<?xml version="1.0" encoding="utf-8"?>
<!-- Generator: Adobe Illustrator 16.0.0, SVG Export Plug-In . SVG Version: 6.00 Build 0)  -->
<!DOCTYPE svg PUBLIC "-//W3C//DTD SVG 1.1//EN" "http://www.w3.org/Graphics/SVG/1.1/DTD/svg11.dtd">
<svg version="1.1" id="Layer_1" xmlns="http://www.w3.org/2000/svg" xmlns:xlink="http://www.w3.org/1999/xlink" x="0px" y="0px"
	 width="394.906px" height="386.059px" viewBox="0 0 394.906 386.059" enable-background="new 0 0 394.906 386.059"
	 xml:space="preserve">
<path fill="#EE3138" d="M204.289,1v22.253c93.029,1.34,168.365,77.211,168.365,170.777c0,93.297-75.336,169.438-168.365,170.776
	v22.252c105.361-1.34,190.617-87.131,190.617-192.762C394.906,88.668,309.65,2.341,204.289,1z"/>
<path fill="#27BBAD" d="M204.289,23.252v22.253c80.697,1.34,146.113,67.292,146.113,148.525
	c0,81.231-65.416,147.186-146.113,148.524v22.252c93.029-1.34,168.365-77.211,168.365-170.776
	C372.654,100.464,297.318,24.324,204.289,23.252z"/>
<path fill="#4A82C3" d="M204.289,45.236v22.252c68.635,1.343,124.129,57.373,124.129,126.274c0,68.9-55.494,124.934-124.129,126.271
	v22.254c80.697-1.343,146.113-67.293,146.113-148.525C350.402,112.528,284.986,46.576,204.289,45.236z"/>
<radialGradient id="SVGID_1_" cx="-516.7051" cy="875.0979" r="39.7993" gradientTransform="matrix(2.681 0 0 -2.681 1596.6411 2554.2515)" gradientUnits="userSpaceOnUse">
	<stop  offset="0" style="stop-color:#000000"/>
	<stop  offset="1" style="stop-color:#FFFFFF"/>
</radialGradient>
<path opacity="0.74" fill="url(#SVGID_1_)" enable-background="new    " d="M211.354,101.413
	c-58.979,0-106.703,47.987-106.703,106.703c0,58.713,47.989,106.7,106.703,106.7c58.98,0,106.703-47.987,106.703-106.7
	C318.057,149.402,270.066,101.413,211.354,101.413z"/>
<path fill="#F68D35" d="M204.289,67.488V89.74c56.301,1.342,101.877,47.452,101.877,104.021
	c0,56.568-45.576,102.949-101.877,104.021v22.252c68.635-1.343,124.129-57.371,124.129-126.273
	C328.15,124.861,272.654,68.829,204.289,67.488z"/>
<rect y="364.539" fill="#EE3138" width="207.814" height="22.252"/>
<polyline fill="#27BBAD" points="206.289,342.285 46.112,342.285 46.112,364.272 206.289,364.272 "/>
<polyline fill="#4A82C3" points="205.623,320.035 96.515,320.035 96.515,342.285 205.623,342.285 "/>
<rect x="133.78" y="298.588" fill="#F68D35" width="72.369" height="22.252"/>
<path fill="#FFFFFF" d="M201.877,89.74c-57.373,0-104.291,46.648-104.291,104.29c0,57.372,46.649,104.288,104.291,104.288
	c57.371,0,104.289-46.646,104.289-104.288C306.166,136.389,259.248,89.74,201.877,89.74z"/>
<text transform="matrix(1 0 0 1 155.27 168.9124)" enable-background="new    "><tspan x="0" y="0" font-family="'Roboto-Bold'" font-size="24.4872">Learning </tspan><tspan x="-24.427" y="29.385" font-family="'Roboto-Bold'" font-size="24.4872">Management </tspan><tspan x="9.338" y="58.77" font-family="'Roboto-Bold'" font-size="24.4872">System</tspan></text>
</svg>
